{
  "accessors": [
    {
      "bufferView": 2,
      "componentType": 5126,
      "count": 390,
      "max": [
        256.92584228515625,
        13.059374809265137,
        -23.002273559570313
      ],
      "min": [
        192.67677307128906,
        -28.961181640625,
        -156.45516967773438
      ],
      "type": "VEC3"
    },
    {
      "bufferView": 2,
      "byteOffset": 4680,
      "componentType": 5126,
      "count": 390,
      "max": [
        1.0,
        1.0,
        1.0
      ],
      "min": [
        -1.0,
        -1.0,
        -1.0
      ],
      "type": "VEC3"
    },
    {
      "bufferView": 1,
      "componentType": 5126,
      "count": 390,
      "max": [
        0.9648975133895874,
        1.0
      ],
      "min": [
        0.04614350572228432,
        -0.10654735565185547
      ],
      "type": "VEC2"
    },
    {
      "bufferView": 1,
      "byteOffset": 3120,
      "componentType": 5126,
      "count": 390,
      "max": [
        2.845794916152954,
        1.4919984340667725
      ],
      "min": [
        -2.3062472343444824,
        -0.48623204231262207
      ],
      "type": "VEC2"
    },
    {
      "bufferView": 1,
      "byteOffset": 6240,
      "componentType": 5126,
      "count": 390,
      "max": [
        0.0,
        1.0
      ],
      "min": [
        0.0,
        1.0
      ],
      "type": "VEC2"
    },
    {
      "bufferView": 0,
      "componentType": 5125,
      "count": 1020,
      "type": "SCALAR"
    },
    {
      "bufferView": 2,
      "byteOffset": 9360,
      "componentType": 5126,
      "count": 190,
      "max": [
        251.4671173095703,
        7.2787251472473145,
        -27.911788940429688
      ],
      "min": [
        185.91015625,
        -22.10258674621582,
        -153.61656188964844
      ],
      "type": "VEC3"
    },
    {
      "bufferView": 2,
      "byteOffset": 11640,
      "componentType": 5126,
      "count": 190,
      "max": [
        -1.0,
        0.0,
        0.0
      ],
      "min": [
        -1.0,
        0.0,
        0.0
      ],
      "type": "VEC3"
    },
    {
      "bufferView": 1,
      "byteOffset": 9360,
      "componentType": 5126,
      "count": 190,
      "max": [
        0.9300602674484253,
        0.8112037181854248
      ],
      "min": [
        0.06469719111919403,
        0.4820671081542969
      ],
      "type": "VEC2"
    },
    {
      "bufferView": 1,
      "byteOffset": 10880,
      "componentType": 5126,
      "count": 190,
      "max": [
        17.188364028930664,
        7.219592094421387
      ],
      "min": [
        -14.962674140930176,
        -6.5787248611450195
      ],
      "type": "VEC2"
    },
    {
      "bufferView": 1,
      "byteOffset": 12400,
      "componentType": 5126,
      "count": 190,
      "max": [
        0.0,
        1.0
      ],
      "min": [
        0.0,
        1.0
      ],
      "type": "VEC2"
    },
    {
      "bufferView": 0,
      "byteOffset": 4080,
      "componentType": 5125,
      "count": 390,
      "type": "SCALAR"
    },
    {
      "bufferView": 2,
      "byteOffset": 13920,
      "componentType": 5126,
      "count": 16,
      "max": [
        248.94512939453125,
        11.844717025756836,
        -25.116878509521484
      ],
      "min": [
        188.63694763183594,
        8.964080810546875,
        -156.45516967773438
      ],
      "type": "VEC3"
    },
    {
      "bufferView": 2,
      "byteOffset": 14112,
      "componentType": 5126,
      "count": 16,
      "max": [
        -1.0,
        0.0,
        0.0
      ],
      "min": [
        -1.0,
        0.0,
        0.0
      ],
      "type": "VEC3"
    },
    {
      "bufferView": 3,
      "componentType": 5126,
      "count": 16,
      "max": [
        0.0,
        1.0581366893802624e-08,
        1.0,
        -1.0
      ],
      "min": [
        0.0,
        -5.6624420707862555e-09,
        1.0,
        -1.0
      ],
      "type": "VEC4"
    },
    {
      "bufferView": 1,
      "byteOffset": 13920,
      "componentType": 5126,
      "count": 16,
      "max": [
        0.9504642486572266,
        0.4844318628311157
      ],
      "min": [
        0.04609891027212143,
        0.3971986174583435
      ],
      "type": "VEC2"
    },
    {
      "bufferView": 1,
      "byteOffset": 14048,
      "componentType": 5126,
      "count": 16,
      "max": [
        2.809232473373413,
        -0.4040104150772095
      ],
      "min": [
        -2.3062472343444824,
        -0.6585041284561157
      ],
      "type": "VEC2"
    },
    {
      "bufferView": 1,
      "byteOffset": 14176,
      "componentType": 5126,
      "count": 16,
      "max": [
        0.0,
        1.0
      ],
      "min": [
        0.0,
        1.0
      ],
      "type": "VEC2"
    },
    {
      "bufferView": 1,
      "byteOffset": 14304,
      "componentType": 5126,
      "count": 16,
      "max": [
        0.9504642486572266,
        0.4844318628311157
      ],
      "min": [
        0.04609891027212143,
        0.3971986174583435
      ],
      "type": "VEC2"
    },
    {
      "bufferView": 1,
      "byteOffset": 14432,
      "componentType": 5126,
      "count": 16,
      "max": [
        0.9504642486572266,
        0.4844318628311157
      ],
      "min": [
        0.04609891027212143,
        0.3971986174583435
      ],
      "type": "VEC2"
    },
    {
      "bufferView": 1,
      "byteOffset": 14560,
      "componentType": 5126,
      "count": 16,
      "max": [
        0.9504642486572266,
        0.4844318628311157
      ],
      "min": [
        0.04609891027212143,
        0.3971986174583435
      ],
      "type": "VEC2"
    },
    {
      "bufferView": 0,
      "byteOffset": 5640,
      "componentType": 5125,
      "count": 36,
      "type": "SCALAR"
    },
    {
      "bufferView": 2,
      "byteOffset": 14304,
      "componentType": 5126,
      "count": 18,
      "max": [
        248.628662109375,
        -11.324810028076172,
        -24.982940673828125
      ],
      "min": [
        188.13003540039063,
        -14.160919189453125,
        -156.45516967773438
      ],
      "type": "VEC3"
    },
    {
      "bufferView": 2,
      "byteOffset": 14520,
      "componentType": 5126,
      "count": 18,
      "max": [
        -1.0,
        0.0,
        0.0
      ],
      "min": [
        -1.0,
        0.0,
        0.0
      ],
      "type": "VEC3"
    },
    {
      "bufferView": 3,
      "byteOffset": 256,
      "componentType": 5126,
      "count": 18,
      "max": [
        0.0,
        9.498945985342289e-08,
        1.0,
        -1.0
      ],
      "min": [
        0.0,
        -9.668565503773152e-09,
        1.0,
        -1.0
      ],
      "type": "VEC4"
    },
    {
      "bufferView": 1,
      "byteOffset": 14688,
      "componentType": 5126,
      "count": 18,
      "max": [
        0.9513786435127258,
        0.6787486672401428
      ],
      "min": [
        0.04626870155334473,
        0.584845781326294
      ],
      "type": "VEC2"
    },
    {
      "bufferView": 1,
      "byteOffset": 14832,
      "componentType": 5126,
      "count": 18,
      "max": [
        2.8144493103027344,
        1.7422559261322021
      ],
      "min": [
        -2.3062472343444824,
        1.4918947219848633
      ],
      "type": "VEC2"
    },
    {
      "bufferView": 1,
      "byteOffset": 14976,
      "componentType": 5126,
      "count": 18,
      "max": [
        0.0,
        1.0
      ],
      "min": [
        0.0,
        1.0
      ],
      "type": "VEC2"
    },
    {
      "bufferView": 1,
      "byteOffset": 15120,
      "componentType": 5126,
      "count": 18,
      "max": [
        0.9513786435127258,
        0.6787486672401428
      ],
      "min": [
        0.04626870155334473,
        0.584845781326294
      ],
      "type": "VEC2"
    },
    {
      "bufferView": 1,
      "byteOffset": 15264,
      "componentType": 5126,
      "count": 18,
      "max": [
        0.9513786435127258,
        0.6787486672401428
      ],
      "min": [
        0.04626870155334473,
        0.584845781326294
      ],
      "type": "VEC2"
    },
    {
      "bufferView": 1,
      "byteOffset": 15408,
      "componentType": 5126,
      "count": 18,
      "max": [
        0.9513786435127258,
        0.6787486672401428
      ],
      "min": [
        0.04626870155334473,
        0.584845781326294
      ],
      "type": "VEC2"
    },
    {
      "bufferView": 0,
      "byteOffset": 5784,
      "componentType": 5125,
      "count": 42,
      "type": "SCALAR"
    },
    {
      "bufferView": 2,
      "byteOffset": 14736,
      "componentType": 5126,
      "count": 22,
      "max": [
        229.81277465820313,
        -17.387882232666016,
        -45.36824035644531
      ],
      "min": [
        157.99029541015625,
        -25.034748077392578,
        -136.03250122070313
      ],
      "type": "VEC3"
    },
    {
      "bufferView": 2,
      "byteOffset": 15000,
      "componentType": 5126,
      "count": 22,
      "max": [
        -1.0,
        0.0,
        0.0
      ],
      "min": [
        -1.0,
        0.0,
        0.0
      ],
      "type": "VEC3"
    },
    {
      "bufferView": 3,
      "byteOffset": 544,
      "componentType": 5126,
      "count": 22,
      "max": [
        0.0,
        0.6611087322235107,
        1.0,
        1.0
      ],
      "min": [
        0.0,
        -1.0,
        0.0,
        -1.0
      ],
      "type": "VEC4"
    },
    {
      "bufferView": 1,
      "byteOffset": 15552,
      "componentType": 5126,
      "count": 22,
      "max": [
        0.7925781607627869,
        0.6375346183776855
      ],
      "min": [
        0.21616367995738983,
        0.610477089881897
      ],
      "type": "VEC2"
    },
    {
      "bufferView": 1,
      "byteOffset": 15728,
      "componentType": 5126,
      "count": 22,
      "max": [
        2.0204641819000244,
        2.7514724731445313
      ],
      "min": [
        -1.5108075141906738,
        2.0546178817749023
      ],
      "type": "VEC2"
    },
    {
      "bufferView": 1,
      "byteOffset": 15904,
      "componentType": 5126,
      "count": 22,
      "max": [
        0.0,
        1.0
      ],
      "min": [
        0.0,
        1.0
      ],
      "type": "VEC2"
    },
    {
      "bufferView": 1,
      "byteOffset": 16080,
      "componentType": 5126,
      "count": 22,
      "max": [
        0.7925781607627869,
        0.6375346183776855
      ],
      "min": [
        0.21616367995738983,
        0.610477089881897
      ],
      "type": "VEC2"
    },
    {
      "bufferView": 1,
      "byteOffset": 16256,
      "componentType": 5126,
      "count": 22,
      "max": [
        0.7925781607627869,
        0.6375346183776855
      ],
      "min": [
        0.21616367995738983,
        0.610477089881897
      ],
      "type": "VEC2"
    },
    {
      "bufferView": 1,
      "byteOffset": 16432,
      "componentType": 5126,
      "count": 22,
      "max": [
        0.7925781607627869,
        0.6375346183776855
      ],
      "min": [
        0.21616367995738983,
        0.610477089881897
      ],
      "type": "VEC2"
    },
    {
      "bufferView": 0,
      "byteOffset": 5952,
      "componentType": 5125,
      "count": 54,
      "type": "SCALAR"
    },
    {
      "bufferView": 2,
      "byteOffset": 15264,
      "componentType": 5126,
      "count": 2990,
      "max": [
        8.870880126953125,
        8.80560302734375,
        277.2510681152344
      ],
      "min": [
        -618.384521484375,
        -31.269023895263672,
        -453.1665344238281
      ],
      "type": "VEC3"
    },
    {
      "bufferView": 2,
      "byteOffset": 51144,
      "componentType": 5126,
      "count": 2990,
      "max": [
        1.0,
        1.0,
        1.0
      ],
      "min": [
        -1.0,
        -1.0,
        -1.0
      ],
      "type": "VEC3"
    },
    {
      "bufferView": 1,
      "byteOffset": 16608,
      "componentType": 5126,
      "count": 2990,
      "max": [
        1.4682003259658813,
        1.0
      ],
      "min": [
        0.0,
        0.0
      ],
      "type": "VEC2"
    },
    {
      "bufferView": 1,
      "byteOffset": 40528,
      "componentType": 5126,
      "count": 2990,
      "max": [
        0.0,
        1.0
      ],
      "min": [
        0.0,
        1.0
      ],
      "type": "VEC2"
    },
    {
      "bufferView": 1,
      "byteOffset": 64448,
      "componentType": 5126,
      "count": 2990,
      "max": [
        0.0,
        1.0
      ],
      "min": [
        0.0,
        1.0
      ],
      "type": "VEC2"
    },
    {
      "bufferView": 0,
      "byteOffset": 6168,
      "componentType": 5125,
      "count": 6678,
      "type": "SCALAR"
    },
    {
      "bufferView": 2,
      "byteOffset": 87024,
      "componentType": 5126,
      "count": 404,
      "max": [
        6.440643310546875,
        -30.031837463378906,
        274.421142578125
      ],
      "min": [
        -615.954345703125,
        -30.741092681884766,
        -450.33660888671875
      ],
      "type": "VEC3"
    },
    {
      "bufferView": 2,
      "byteOffset": 91872,
      "componentType": 5126,
      "count": 404,
      "max": [
        1.0,
        1.0,
        1.0
      ],
      "min": [
        -1.0,
        -1.0,
        -1.0
      ],
      "type": "VEC3"
    },
    {
      "bufferView": 1,
      "byteOffset": 88368,
      "componentType": 5126,
      "count": 404,
      "max": [
        1.0,
        0.9900000095367432
      ],
      "min": [
        0.0,
        0.0
      ],
      "type": "VEC2"
    },
    {
      "bufferView": 1,
      "byteOffset": 91600,
      "componentType": 5126,
      "count": 404,
      "max": [
        65.6541748046875,
        65.65470123291016
      ],
      "min": [
        -64.6541748046875,
        -64.6541748046875
      ],
      "type": "VEC2"
    },
    {
      "bufferView": 1,
      "byteOffset": 94832,
      "componentType": 5126,
      "count": 404,
      "max": [
        0.0,
        1.0
      ],
      "min": [
        0.0,
        1.0
      ],
      "type": "VEC2"
    },
    {
      "bufferView": 0,
      "byteOffset": 32880,
      "componentType": 5125,
      "count": 1524,
      "type": "SCALAR"
    },
    {
      "bufferView": 2,
      "byteOffset": 96720,
      "componentType": 5126,
      "count": 396,
      "max": [
        -94.94259643554688,
        -29.7667179107666,
        156.36380004882813
      ],
      "min": [
        -514.571044921875,
        -30.61893653869629,
        -332.279296875
      ],
      "type": "VEC3"
    },
    {
      "bufferView": 2,
      "byteOffset": 101472,
      "componentType": 5126,
      "count": 396,
      "max": [
        1.0,
        0.6977450251579285,
        1.0
      ],
      "min": [
        -1.0,
        -0.6977450251579285,
        -1.0
      ],
      "type": "VEC3"
    },
    {
      "bufferView": 1,
      "byteOffset": 98064,
      "componentType": 5126,
      "count": 396,
      "max": [
        1.0,
        0.9900000095367432
      ],
      "min": [
        0.0,
        0.0
      ],
      "type": "VEC2"
    },
    {
      "bufferView": 1,
      "byteOffset": 101232,
      "componentType": 5126,
      "count": 396,
      "max": [
        176.45787048339844,
        176.4593048095703
      ],
      "min": [
        -175.45787048339844,
        -175.45787048339844
      ],
      "type": "VEC2"
    },
    {
      "bufferView": 1,
      "byteOffset": 104400,
      "componentType": 5126,
      "count": 396,
      "max": [
        0.0,
        1.0
      ],
      "min": [
        0.0,
        1.0
      ],
      "type": "VEC2"
    },
    {
      "bufferView": 0,
      "byteOffset": 38976,
      "componentType": 5125,
      "count": 1524,
      "type": "SCALAR"
    },
    {
      "bufferView": 2,
      "byteOffset": 106224,
      "componentType": 5126,
      "count": 65534,
      "max": [
        256.92584228515625,
        26.794801712036133,
        109.38355255126953
      ],
      "min": [
        -12.996026039123535,
        -29.3419189453125,
        -287.58984375
      ],
      "type": "VEC3"
    },
    {
      "bufferView": 2,
      "byteOffset": 892632,
      "componentType": 5126,
      "count": 65534,
      "max": [
        1.0,
        1.0,
        1.0
      ],
      "min": [
        -1.0,
        -1.0,
        -1.0
      ],
      "type": "VEC3"
    },
    {
      "bufferView": 1,
      "byteOffset": 107568,
      "componentType": 5126,
      "count": 65534,
      "max": [
        1.704236388206482,
        1.0
      ],
      "min": [
        0.0,
        -0.10654735565185547
      ],
      "type": "VEC2"
    },
    {
      "bufferView": 1,
      "byteOffset": 631840,
      "componentType": 5126,
      "count": 65534,
      "max": [
        3.812547445297241,
        3.812547445297241
      ],
      "min": [
        -2.812547445297241,
        -2.812547445297241
      ],
      "type": "VEC2"
    },
    {
      "bufferView": 1,
      "byteOffset": 1156112,
      "componentType": 5126,
      "count": 65534,
      "max": [
        0.0,
        1.0
      ],
      "min": [
        0.0,
        1.0
      ],
      "type": "VEC2"
    },
    {
      "bufferView": 0,
      "byteOffset": 45072,
      "componentType": 5125,
      "count": 214155,
      "type": "SCALAR"
    },
    {
      "bufferView": 2,
      "byteOffset": 1679040,
      "componentType": 5126,
      "count": 18553,
      "max": [
        62.62804412841797,
        15.065750122070313,
        47.415504455566406
      ],
      "min": [
        -60.57910919189453,
        -30.506643295288086,
        -199.84454345703125
      ],
      "type": "VEC3"
    },
    {
      "bufferView": 2,
      "byteOffset": 1901676,
      "componentType": 5126,
      "count": 18553,
      "max": [
        1.0,
        1.0,
        1.0
      ],
      "min": [
        -1.0,
        -1.0,
        -1.0
      ],
      "type": "VEC3"
    },
    {
      "bufferView": 1,
      "byteOffset": 1680384,
      "componentType": 5126,
      "count": 18553,
      "max": [
        1.0109916925430298,
        1.1134617328643799
      ],
      "min": [
        0.0,
        -0.23065638542175293
      ],
      "type": "VEC2"
    },
    {
      "bufferView": 1,
      "byteOffset": 1828808,
      "componentType": 5126,
      "count": 18553,
      "max": [
        3.045140504837036,
        3.6061973571777344
      ],
      "min": [
        -2.6061973571777344,
        -2.045140504837036
      ],
      "type": "VEC2"
    },
    {
      "bufferView": 1,
      "byteOffset": 1977232,
      "componentType": 5126,
      "count": 18553,
      "max": [
        0.0,
        1.0
      ],
      "min": [
        0.0,
        1.0
      ],
      "type": "VEC2"
    },
    {
      "bufferView": 0,
      "byteOffset": 901692,
      "componentType": 5125,
      "count": 74085,
      "type": "SCALAR"
    },
    {
      "bufferView": 2,
      "byteOffset": 2124312,
      "componentType": 5126,
      "count": 15014,
      "max": [
        -3.8547630310058594,
        -25.373695373535156,
        22.763874053955078
      ],
      "min": [
        -48.59002685546875,
        -30.5595703125,
        -199.1805419921875
      ],
      "type": "VEC3"
    },
    {
      "bufferView": 2,
      "byteOffset": 2304480,
      "componentType": 5126,
      "count": 15014,
      "max": [
        1.0,
        1.0,
        0.9998905658721924
      ],
      "min": [
        -0.9999075531959534,
        -1.0,
        -0.9616946578025818
      ],
      "type": "VEC3"
    },
    {
      "bufferView": 1,
      "byteOffset": 2125656,
      "componentType": 5126,
      "count": 15014,
      "max": [
        2.858107566833496,
        7.177363395690918
      ],
      "min": [
        -2.131016254425049,
        -6.636417388916016
      ],
      "type": "VEC2"
    },
    {
      "bufferView": 1,
      "byteOffset": 2245768,
      "componentType": 5126,
      "count": 15014,
      "max": [
        2.858107566833496,
        7.177363395690918
      ],
      "min": [
        -2.131016254425049,
        -6.636417388916016
      ],
      "type": "VEC2"
    },
    {
      "bufferView": 1,
      "byteOffset": 2365880,
      "componentType": 5126,
      "count": 15014,
      "max": [
        0.0,
        1.0
      ],
      "min": [
        0.0,
        1.0
      ],
      "type": "VEC2"
    },
    {
      "bufferView": 1,
      "byteOffset": 2485992,
      "componentType": 5126,
      "count": 15014,
      "max": [
        2.858107566833496,
        7.177363395690918
      ],
      "min": [
        -2.131016254425049,
        -6.636417388916016
      ],
      "type": "VEC2"
    },
    {
      "bufferView": 0,
      "byteOffset": 1198032,
      "componentType": 5125,
      "count": 75189,
      "type": "SCALAR"
    },
    {
      "bufferView": 2,
      "byteOffset": 2484648,
      "componentType": 5126,
      "count": 9,
      "max": [
        2.2644729614257813,
        -11.843875885009766,
        107.47289276123047
      ],
      "min": [
        2.2643775939941406,
        -14.541397094726563,
        -281.7264404296875
      ],
      "type": "VEC3"
    },
    {
      "bufferView": 2,
      "byteOffset": 2484756,
      "componentType": 5126,
      "count": 9,
      "max": [
        1.0,
        0.0,
        0.0
      ],
      "min": [
        1.0,
        0.0,
        0.0
      ],
      "type": "VEC3"
    },
    {
      "bufferView": 3,
      "byteOffset": 896,
      "componentType": 5126,
      "count": 9,
      "max": [
        0.0,
        2.3005117810726006e-08,
        -1.0,
        -1.0
      ],
      "min": [
        0.0,
        -2.3415893668499166e-09,
        -1.0,
        -1.0
      ],
      "type": "VEC4"
    },
    {
      "bufferView": 1,
      "byteOffset": 2606104,
      "componentType": 5126,
      "count": 9,
      "max": [
        0.9513786435127258,
        0.6787486672401428
      ],
      "min": [
        0.04626870155334473,
        0.584845781326294
      ],
      "type": "VEC2"
    },
    {
      "bufferView": 1,
      "byteOffset": 2606176,
      "componentType": 5126,
      "count": 9,
      "max": [
        2.8144493103027344,
        1.7422559261322021
      ],
      "min": [
        -2.3062472343444824,
        1.4918947219848633
      ],
      "type": "VEC2"
    },
    {
      "bufferView": 1,
      "byteOffset": 2606248,
      "componentType": 5126,
      "count": 9,
      "max": [
        0.0,
        1.0
      ],
      "min": [
        0.0,
        1.0
      ],
      "type": "VEC2"
    },
    {
      "bufferView": 1,
      "byteOffset": 2606320,
      "componentType": 5126,
      "count": 9,
      "max": [
        0.9513786435127258,
        0.6787486672401428
      ],
      "min": [
        0.04626870155334473,
        0.584845781326294
      ],
      "type": "VEC2"
    },
    {
      "bufferView": 1,
      "byteOffset": 2606392,
      "componentType": 5126,
      "count": 9,
      "max": [
        0.9513786435127258,
        0.6787486672401428
      ],
      "min": [
        0.04626870155334473,
        0.584845781326294
      ],
      "type": "VEC2"
    },
    {
      "bufferView": 1,
      "byteOffset": 2606464,
      "componentType": 5126,
      "count": 9,
      "max": [
        0.9513786435127258,
        0.6787486672401428
      ],
      "min": [
        0.04626870155334473,
        0.584845781326294
      ],
      "type": "VEC2"
    },
    {
      "bufferView": 0,
      "byteOffset": 1498788,
      "componentType": 5125,
      "count": 21,
      "type": "SCALAR"
    },
    {
      "bufferView": 2,
      "byteOffset": 2484864,
      "componentType": 5126,
      "count": 11,
      "max": [
        17.795459747314453,
        -17.90694808959961,
        47.01536560058594
      ],
      "min": [
        17.795394897460938,
        -25.415225982666016,
        -221.37948608398438
      ],
      "type": "VEC3"
    },
    {
      "bufferView": 2,
      "byteOffset": 2484996,
      "componentType": 5126,
      "count": 11,
      "max": [
        1.0,
        0.0,
        0.0
      ],
      "min": [
        1.0,
        0.0,
        0.0
      ],
      "type": "VEC3"
    },
    {
      "bufferView": 3,
      "byteOffset": 1040,
      "componentType": 5126,
      "count": 11,
      "max": [
        0.0,
        1.0,
        0.0,
        1.0
      ],
      "min": [
        0.0,
        -1.016503592410345e-08,
        -1.0,
        -1.0
      ],
      "type": "VEC4"
    },
    {
      "bufferView": 1,
      "byteOffset": 2606536,
      "componentType": 5126,
      "count": 11,
      "max": [
        0.7925781607627869,
        0.6375346183776855
      ],
      "min": [
        0.21616367995738983,
        0.610477089881897
      ],
      "type": "VEC2"
    },
    {
      "bufferView": 1,
      "byteOffset": 2606624,
      "componentType": 5126,
      "count": 11,
      "max": [
        2.0204641819000244,
        2.7514724731445313
      ],
      "min": [
        -1.5108075141906738,
        2.0546178817749023
      ],
      "type": "VEC2"
    },
    {
      "bufferView": 1,
      "byteOffset": 2606712,
      "componentType": 5126,
      "count": 11,
      "max": [
        0.0,
        1.0
      ],
      "min": [
        0.0,
        1.0
      ],
      "type": "VEC2"
    },
    {
      "bufferView": 1,
      "byteOffset": 2606800,
      "componentType": 5126,
      "count": 11,
      "max": [
        0.7925781607627869,
        0.6375346183776855
      ],
      "min": [
        0.21616367995738983,
        0.610477089881897
      ],
      "type": "VEC2"
    },
    {
      "bufferView": 1,
      "byteOffset": 2606888,
      "componentType": 5126,
      "count": 11,
      "max": [
        0.7925781607627869,
        0.6375346183776855
      ],
      "min": [
        0.21616367995738983,
        0.610477089881897
      ],
      "type": "VEC2"
    },
    {
      "bufferView": 1,
      "byteOffset": 2606976,
      "componentType": 5126,
      "count": 11,
      "max": [
        0.7925781607627869,
        0.6375346183776855
      ],
      "min": [
        0.21616367995738983,
        0.610477089881897
      ],
      "type": "VEC2"
    },
    {
      "bufferView": 0,
      "byteOffset": 1498872,
      "componentType": 5125,
      "count": 27,
      "type": "SCALAR"
    },
    {
      "bufferView": 2,
      "byteOffset": 2485128,
      "componentType": 5126,
      "count": 8,
      "max": [
        -4.58154296875,
        -25.413593292236328,
        107.29900360107422
      ],
      "min": [
        -4.584300994873047,
        -29.341659545898438,
        -287.58984375
      ],
      "type": "VEC3"
    },
    {
      "bufferView": 2,
      "byteOffset": 2485224,
      "componentType": 5126,
      "count": 8,
      "max": [
        1.0,
        -0.00039999998989515007,
        0.0
      ],
      "min": [
        1.0,
        -0.00039999998989515007,
        0.0
      ],
      "type": "VEC3"
    },
    {
      "bufferView": 3,
      "byteOffset": 1216,
      "componentType": 5126,
      "count": 8,
      "max": [
        0.0004000000189989805,
        1.0,
        0.0004685165476985276,
        -1.0
      ],
      "min": [
        0.0003999999025836587,
        0.9999998211860657,
        0.0,
        -1.0
      ],
      "type": "VEC4"
    },
    {
      "bufferView": 1,
      "byteOffset": 2607064,
      "componentType": 5126,
      "count": 8,
      "max": [
        0.9648975133895874,
        0.7916768789291382
      ],
      "min": [
        0.04666959494352341,
        0.6947439908981323
      ],
      "type": "VEC2"
    },
    {
      "bufferView": 1,
      "byteOffset": 2607128,
      "componentType": 5126,
      "count": 8,
      "max": [
        0.07019233703613281,
        0.9999735355377197
      ],
      "min": [
        2.6467943825991824e-05,
        2.6464462280273438e-05
      ],
      "type": "VEC2"
    },
    {
      "bufferView": 1,
      "byteOffset": 2607192,
      "componentType": 5126,
      "count": 8,
      "max": [
        0.0,
        1.0
      ],
      "min": [
        0.0,
        1.0
      ],
      "type": "VEC2"
    },
    {
      "bufferView": 1,
      "byteOffset": 2607256,
      "componentType": 5126,
      "count": 8,
      "max": [
        0.9648975133895874,
        0.7916768789291382
      ],
      "min": [
        0.04666959494352341,
        0.6947439908981323
      ],
      "type": "VEC2"
    },
    {
      "bufferView": 1,
      "byteOffset": 2607320,
      "componentType": 5126,
      "count": 8,
      "max": [
        0.9648975133895874,
        0.7916768789291382
      ],
      "min": [
        0.04666959494352341,
        0.6947439908981323
      ],
      "type": "VEC2"
    },
    {
      "bufferView": 1,
      "byteOffset": 2607384,
      "componentType": 5126,
      "count": 8,
      "max": [
        0.9648975133895874,
        0.7916768789291382
      ],
      "min": [
        0.04666959494352341,
        0.6947439908981323
      ],
      "type": "VEC2"
    },
    {
      "bufferView": 0,
      "byteOffset": 1498980,
      "componentType": 5125,
      "count": 18,
      "type": "SCALAR"
    },
    {
      "bufferView": 2,
      "byteOffset": 2485320,
      "componentType": 5126,
      "count": 561,
      "max": [
        -0.9689979553222656,
        32.25163650512695,
        -88.68560028076172
      ],
      "min": [
        -1.5412979125976563,
        14.696069717407227,
        -89.86256408691406
      ],
      "type": "VEC3"
    },
    {
      "bufferView": 2,
      "byteOffset": 2492052,
      "componentType": 5126,
      "count": 561,
      "max": [
        0.9976837038993835,
        1.0,
        0.9934457540512085
      ],
      "min": [
        -0.999891996383667,
        -1.0,
        -0.996144711971283
      ],
      "type": "VEC3"
    },
    {
      "bufferView": 1,
      "byteOffset": 2607448,
      "componentType": 5126,
      "count": 561,
      "max": [
        0.9760640859603882,
        1.9984374046325684
      ],
      "min": [
        -0.09651965647935867,
        -0.00819087028503418
      ],
      "type": "VEC2"
    },
    {
      "bufferView": 1,
      "byteOffset": 2611936,
      "componentType": 5126,
      "count": 561,
      "max": [
        0.0,
        1.0
      ],
      "min": [
        0.0,
        1.0
      ],
      "type": "VEC2"
    },
    {
      "bufferView": 1,
      "byteOffset": 2616424,
      "componentType": 5126,
      "count": 561,
      "max": [
        0.9760640859603882,
        1.9984374046325684
      ],
      "min": [
        -0.09651965647935867,
        -0.00819087028503418
      ],
      "type": "VEC2"
    },
    {
      "bufferView": 0,
      "byteOffset": 1499052,
      "componentType": 5125,
      "count": 654,
      "type": "SCALAR"
    },
    {
      "bufferView": 2,
      "byteOffset": 2498784,
      "componentType": 5126,
      "count": 391,
      "max": [
        -0.8128547668457031,
        32.18085479736328,
        -72.09663391113281
      ],
      "min": [
        -1.8986701965332031,
        23.816953659057617,
        -89.17752075195313
      ],
      "type": "VEC3"
    },
    {
      "bufferView": 2,
      "byteOffset": 2503476,
      "componentType": 5126,
      "count": 391,
      "max": [
        0.7287275791168213,
        0.9583287239074707,
        0.656080424785614
      ],
      "min": [
        -0.9998151659965515,
        -0.9209917783737183,
        -0.36480456590652466
      ],
      "type": "VEC3"
    },
    {
      "bufferView": 1,
      "byteOffset": 2620912,
      "componentType": 5126,
      "count": 391,
      "max": [
        1.000060796737671,
        1.0008518695831299
      ],
      "min": [
        1.702134613879025e-05,
        -3.5762786865234375e-07
      ],
      "type": "VEC2"
    },
    {
      "bufferView": 1,
      "byteOffset": 2624040,
      "componentType": 5126,
      "count": 391,
      "max": [
        0.0,
        1.0
      ],
      "min": [
        0.0,
        1.0
      ],
      "type": "VEC2"
    },
    {
      "bufferView": 1,
      "byteOffset": 2627168,
      "componentType": 5126,
      "count": 391,
      "max": [
        0.0,
        1.0
      ],
      "min": [
        0.0,
        1.0
      ],
      "type": "VEC2"
    },
    {
      "bufferView": 0,
      "byteOffset": 1501668,
      "componentType": 5125,
      "count": 2160,
      "type": "SCALAR"
    },
    {
      "bufferView": 2,
      "byteOffset": 2508168,
      "componentType": 5126,
      "count": 468,
      "max": [
        -11.266765594482422,
        6.454172611236572,
        -57.878265380859375
      ],
      "min": [
        -19.650535583496094,
        -15.980693817138672,
        -117.84056091308594
      ],
      "type": "VEC3"
    },
    {
      "bufferView": 2,
      "byteOffset": 2513784,
      "componentType": 5126,
      "count": 468,
      "max": [
        0.9970594644546509,
        0.7614778280258179,
        0.9978392720222473
      ],
      "min": [
        -0.9969924688339233,
        -0.7614778280258179,
        -0.996378481388092
      ],
      "type": "VEC3"
    },
    {
      "bufferView": 1,
      "byteOffset": 2630296,
      "componentType": 5126,
      "count": 468,
      "max": [
        0.0,
        0.0
      ],
      "min": [
        0.0,
        0.0
      ],
      "type": "VEC2"
    },
    {
      "bufferView": 1,
      "byteOffset": 2634040,
      "componentType": 5126,
      "count": 468,
      "max": [
        0.0,
        1.0
      ],
      "min": [
        0.0,
        1.0
      ],
      "type": "VEC2"
    },
    {
      "bufferView": 1,
      "byteOffset": 2637784,
      "componentType": 5126,
      "count": 468,
      "max": [
        0.0,
        1.0
      ],
      "min": [
        0.0,
        1.0
      ],
      "type": "VEC2"
    },
    {
      "bufferView": 0,
      "byteOffset": 1510308,
      "componentType": 5125,
      "count": 2118,
      "type": "SCALAR"
    },
    {
      "bufferView": 2,
      "byteOffset": 2519400,
      "componentType": 5126,
      "count": 207,
      "max": [
        -8.317611694335938,
        6.404399871826172,
        -55.367061614990234
      ],
      "min": [
        -19.559356689453125,
        -12.817258834838867,
        -117.55683898925781
      ],
      "type": "VEC3"
    },
    {
      "bufferView": 2,
      "byteOffset": 2521884,
      "componentType": 5126,
      "count": 207,
      "max": [
        0.995657742023468,
        0.7532041668891907,
        0.9895118474960327
      ],
      "min": [
        -0.6063137054443359,
        -0.4085000157356262,
        -0.99825119972229
      ],
      "type": "VEC3"
    },
    {
      "bufferView": 1,
      "byteOffset": 2641528,
      "componentType": 5126,
      "count": 207,
      "max": [
        0.5197662711143494,
        1.0007601976394653
      ],
      "min": [
        -8.220833115046844e-05,
        7.015466690063477e-05
      ],
      "type": "VEC2"
    },
    {
      "bufferView": 1,
      "byteOffset": 2643184,
      "componentType": 5126,
      "count": 207,
      "max": [
        0.0,
        1.0
      ],
      "min": [
        0.0,
        1.0
      ],
      "type": "VEC2"
    },
    {
      "bufferView": 1,
      "byteOffset": 2644840,
      "componentType": 5126,
      "count": 207,
      "max": [
        0.0,
        1.0
      ],
      "min": [
        0.0,
        1.0
      ],
      "type": "VEC2"
    },
    {
      "bufferView": 0,
      "byteOffset": 1518780,
      "componentType": 5125,
      "count": 972,
      "type": "SCALAR"
    },
    {
      "bufferView": 2,
      "byteOffset": 2524368,
      "componentType": 5126,
      "count": 69,
      "max": [
        -15.383914947509766,
        -8.177295684814453,
        -103.75426483154297
      ],
      "min": [
        -19.390697479248047,
        -12.817258834838867,
        -105.99972534179688
      ],
      "type": "VEC3"
    },
    {
      "bufferView": 2,
      "byteOffset": 2525196,
      "componentType": 5126,
      "count": 69,
      "max": [
        0.9488625526428223,
        0.7568663358688354,
        0.6775943636894226
      ],
      "min": [
        -0.691109836101532,
        -0.40900909900665283,
        -0.9977178573608398
      ],
      "type": "VEC3"
    },
    {
      "bufferView": 1,
      "byteOffset": 2646496,
      "componentType": 5126,
      "count": 69,
      "max": [
        0.5197662711143494,
        1.0007601976394653
      ],
      "min": [
        -8.220833115046844e-05,
        7.015466690063477e-05
      ],
      "type": "VEC2"
    },
    {
      "bufferView": 1,
      "byteOffset": 2647048,
      "componentType": 5126,
      "count": 69,
      "max": [
        0.0,
        1.0
      ],
      "min": [
        0.0,
        1.0
      ],
      "type": "VEC2"
    },
    {
      "bufferView": 1,
      "byteOffset": 2647600,
      "componentType": 5126,
      "count": 69,
      "max": [
        0.0,
        1.0
      ],
      "min": [
        0.0,
        1.0
      ],
      "type": "VEC2"
    },
    {
      "bufferView": 0,
      "byteOffset": 1522668,
      "componentType": 5125,
      "count": 324,
      "type": "SCALAR"
    },
    {
      "bufferView": 2,
      "byteOffset": 2526024,
      "componentType": 5126,
      "count": 246,
      "max": [
        -8.317619323730469,
        6.404399871826172,
        -68.33772277832031
      ],
      "min": [
        -19.401123046875,
        -12.818351745605469,
        -108.14827728271484
      ],
      "type": "VEC3"
    },
    {
      "bufferView": 2,
      "byteOffset": 2528976,
      "componentType": 5126,
      "count": 246,
      "max": [
        0.998288094997406,
        0.7788147926330566,
        0.9512078166007996
      ],
      "min": [
        -0.9677599668502808,
        -0.4081808626651764,
        -0.9997550845146179
      ],
      "type": "VEC3"
    },
    {
      "bufferView": 1,
      "byteOffset": 2648152,
      "componentType": 5126,
      "count": 246,
      "max": [
        0.5197662711143494,
        1.0007601976394653
      ],
      "min": [
        -0.0008513255743309855,
        7.015466690063477e-05
      ],
      "type": "VEC2"
    },
    {
      "bufferView": 1,
      "byteOffset": 2650120,
      "componentType": 5126,
      "count": 246,
      "max": [
        0.0,
        1.0
      ],
      "min": [
        0.0,
        1.0
      ],
      "type": "VEC2"
    },
    {
      "bufferView": 1,
      "byteOffset": 2652088,
      "componentType": 5126,
      "count": 246,
      "max": [
        0.0,
        1.0
      ],
      "min": [
        0.0,
        1.0
      ],
      "type": "VEC2"
    },
    {
      "bufferView": 0,
      "byteOffset": 1523964,
      "componentType": 5125,
      "count": 1134,
      "type": "SCALAR"
    },
    {
      "bufferView": 2,
      "byteOffset": 2531928,
      "componentType": 5126,
      "count": 69,
      "max": [
        -15.500606536865234,
        -8.177295684814453,
        -79.68704223632813
      ],
      "min": [
        -19.401126861572266,
        -12.817258834838867,
        -82.37163543701172
      ],
      "type": "VEC3"
    },
    {
      "bufferView": 2,
      "byteOffset": 2532756,
      "componentType": 5126,
      "count": 69,
      "max": [
        0.927385151386261,
        0.7531867027282715,
        0.7533668875694275
      ],
      "min": [
        -0.6063137054443359,
        -0.40821725130081177,
        -0.99824458360672
      ],
      "type": "VEC3"
    },
    {
      "bufferView": 1,
      "byteOffset": 2654056,
      "componentType": 5126,
      "count": 69,
      "max": [
        0.5197662711143494,
        1.0007601976394653
      ],
      "min": [
        -8.220833115046844e-05,
        7.015466690063477e-05
      ],
      "type": "VEC2"
    },
    {
      "bufferView": 1,
      "byteOffset": 2654608,
      "componentType": 5126,
      "count": 69,
      "max": [
        0.0,
        1.0
      ],
      "min": [
        0.0,
        1.0
      ],
      "type": "VEC2"
    },
    {
      "bufferView": 1,
      "byteOffset": 2655160,
      "componentType": 5126,
      "count": 69,
      "max": [
        0.0,
        1.0
      ],
      "min": [
        0.0,
        1.0
      ],
      "type": "VEC2"
    },
    {
      "bufferView": 0,
      "byteOffset": 1528500,
      "componentType": 5125,
      "count": 324,
      "type": "SCALAR"
    },
    {
      "bufferView": 2,
      "byteOffset": 2533584,
      "componentType": 5126,
      "count": 138,
      "max": [
        -8.114700317382813,
        6.404399871826172,
        -71.75666046142578
      ],
      "min": [
        -11.330745697021484,
        2.7917938232421875,
        -99.8768539428711
      ],
      "type": "VEC3"
    },
    {
      "bufferView": 2,
      "byteOffset": 2535240,
      "componentType": 5126,
      "count": 138,
      "max": [
        0.9885326027870178,
        0.7613134980201721,
        0.4883783459663391
      ],
      "min": [
        -0.8634195923805237,
        -0.406013160943985,
        -0.9947522282600403
      ],
      "type": "VEC3"
    },
    {
      "bufferView": 1,
      "byteOffset": 2655712,
      "componentType": 5126,
      "count": 138,
      "max": [
        0.5197662711143494,
        1.0007601976394653
      ],
      "min": [
        -8.220833115046844e-05,
        7.015466690063477e-05
      ],
      "type": "VEC2"
    },
    {
      "bufferView": 1,
      "byteOffset": 2656816,
      "componentType": 5126,
      "count": 138,
      "max": [
        0.0,
        1.0
      ],
      "min": [
        0.0,
        1.0
      ],
      "type": "VEC2"
    },
    {
      "bufferView": 1,
      "byteOffset": 2657920,
      "componentType": 5126,
      "count": 138,
      "max": [
        0.0,
        1.0
      ],
      "min": [
        0.0,
        1.0
      ],
      "type": "VEC2"
    },
    {
      "bufferView": 0,
      "byteOffset": 1529796,
      "componentType": 5125,
      "count": 648,
      "type": "SCALAR"
    },
    {
      "bufferView": 2,
      "byteOffset": 2536896,
      "componentType": 5126,
      "count": 69,
      "max": [
        -8.381973266601563,
        6.404399871826172,
        -90.80757141113281
      ],
      "min": [
        -11.32894515991211,
        2.7917938232421875,
        -93.39089965820313
      ],
      "type": "VEC3"
    },
    {
      "bufferView": 2,
      "byteOffset": 2537724,
      "componentType": 5126,
      "count": 69,
      "max": [
        0.9911766648292542,
        0.7652866840362549,
        0.02350097894668579
      ],
      "min": [
        -0.9965416193008423,
        -0.3774116039276123,
        -0.9899163246154785
      ],
      "type": "VEC3"
    },
    {
      "bufferView": 1,
      "byteOffset": 2659024,
      "componentType": 5126,
      "count": 69,
      "max": [
        0.5197662711143494,
        1.0007601976394653
      ],
      "min": [
        -8.220833115046844e-05,
        7.015466690063477e-05
      ],
      "type": "VEC2"
    },
    {
      "bufferView": 1,
      "byteOffset": 2659576,
      "componentType": 5126,
      "count": 69,
      "max": [
        0.0,
        1.0
      ],
      "min": [
        0.0,
        1.0
      ],
      "type": "VEC2"
    },
    {
      "bufferView": 1,
      "byteOffset": 2660128,
      "componentType": 5126,
      "count": 69,
      "max": [
        0.0,
        1.0
      ],
      "min": [
        0.0,
        1.0
      ],
      "type": "VEC2"
    },
    {
      "bufferView": 0,
      "byteOffset": 1532388,
      "componentType": 5125,
      "count": 324,
      "type": "SCALAR"
    },
    {
      "bufferView": 2,
      "byteOffset": 2538552,
      "componentType": 5126,
      "count": 3024,
      "max": [
        8.677705764770508,
        -11.704146385192871,
        96.16609191894531
      ],
      "min": [
        0.7787761688232422,
        -15.008756637573242,
        -271.284912109375
      ],
      "type": "VEC3"
    },
    {
      "bufferView": 2,
      "byteOffset": 2574840,
      "componentType": 5126,
      "count": 3024,
      "max": [
        1.0,
        1.0,
        1.0
      ],
      "min": [
        -1.0,
        -1.0,
        -1.0
      ],
      "type": "VEC3"
    },
    {
      "bufferView": 3,
      "byteOffset": 1344,
      "componentType": 5126,
      "count": 3024,
      "max": [
        1.0,
        1.0,
        1.0,
        1.0
      ],
      "min": [
        -1.0,
        -1.0,
        -1.0,
        -1.0
      ],
      "type": "VEC4"
    },
    {
      "bufferView": 1,
      "byteOffset": 2660680,
      "componentType": 5126,
      "count": 3024,
      "max": [
        0.875,
        1.0
      ],
      "min": [
        0.125,
        0.0
      ],
      "type": "VEC2"
    },
    {
      "bufferView": 1,
      "byteOffset": 2684872,
      "componentType": 5126,
      "count": 3024,
      "max": [
        0.8392025232315063,
        1.0
      ],
      "min": [
        0.0,
        0.16079747676849365
      ],
      "type": "VEC2"
    },
    {
      "bufferView": 1,
      "byteOffset": 2709064,
      "componentType": 5126,
      "count": 3024,
      "max": [
        0.0,
        1.0
      ],
      "min": [
        0.0,
        1.0
      ],
      "type": "VEC2"
    },
    {
      "bufferView": 1,
      "byteOffset": 2733256,
      "componentType": 5126,
      "count": 3024,
      "max": [
        0.875,
        1.0
      ],
      "min": [
        0.125,
        0.0
      ],
      "type": "VEC2"
    },
    {
      "bufferView": 1,
      "byteOffset": 2757448,
      "componentType": 5126,
      "count": 3024,
      "max": [
        0.875,
        1.0
      ],
      "min": [
        0.125,
        0.0
      ],
      "type": "VEC2"
    },
    {
      "bufferView": 1,
      "byteOffset": 2781640,
      "componentType": 5126,
      "count": 3024,
      "max": [
        0.875,
        1.0
      ],
      "min": [
        0.125,
        0.0
      ],
      "type": "VEC2"
    },
    {
      "bufferView": 0,
      "byteOffset": 1533684,
      "componentType": 5125,
      "count": 4500,
      "type": "SCALAR"
    },
    {
      "bufferView": 2,
      "byteOffset": 2611128,
      "componentType": 5126,
      "count": 936,
      "max": [
        4.495063304901123,
        -15.011251449584961,
        15.674592971801758
      ],
      "min": [
        1.4054492712020874,
        -25.770803451538086,
        -189.96717834472656
      ],
      "type": "VEC3"
    },
    {
      "bufferView": 2,
      "byteOffset": 2622360,
      "componentType": 5126,
      "count": 936,
      "max": [
        1.0,
        1.0,
        1.0
      ],
      "min": [
        -1.0,
        -1.0,
        -1.0
      ],
      "type": "VEC3"
    },
    {
      "bufferView": 3,
      "byteOffset": 49728,
      "componentType": 5126,
      "count": 936,
      "max": [
        1.0,
        1.0,
        1.0,
        1.0
      ],
      "min": [
        -1.0,
        -1.0,
        -1.0,
        -1.0
      ],
      "type": "VEC4"
    },
    {
      "bufferView": 1,
      "byteOffset": 2805832,
      "componentType": 5126,
      "count": 936,
      "max": [
        0.875,
        1.0
      ],
      "min": [
        0.125,
        0.0
      ],
      "type": "VEC2"
    },
    {
      "bufferView": 1,
      "byteOffset": 2813320,
      "componentType": 5126,
      "count": 936,
      "max": [
        1.5842688083648682,
        1.5842688083648682
      ],
      "min": [
        -0.5842688083648682,
        -0.5842689275741577
      ],
      "type": "VEC2"
    },
    {
      "bufferView": 1,
      "byteOffset": 2820808,
      "componentType": 5126,
      "count": 936,
      "max": [
        0.0,
        1.0
      ],
      "min": [
        0.0,
        1.0
      ],
      "type": "VEC2"
    },
    {
      "bufferView": 1,
      "byteOffset": 2828296,
      "componentType": 5126,
      "count": 936,
      "max": [
        0.875,
        1.0
      ],
      "min": [
        0.125,
        0.0
      ],
      "type": "VEC2"
    },
    {
      "bufferView": 1,
      "byteOffset": 2835784,
      "componentType": 5126,
      "count": 936,
      "max": [
        0.875,
        1.0
      ],
      "min": [
        0.125,
        0.0
      ],
      "type": "VEC2"
    },
    {
      "bufferView": 1,
      "byteOffset": 2843272,
      "componentType": 5126,
      "count": 936,
      "max": [
        0.875,
        1.0
      ],
      "min": [
        0.125,
        0.0
      ],
      "type": "VEC2"
    },
    {
      "bufferView": 0,
      "byteOffset": 1551684,
      "componentType": 5125,
      "count": 1392,
      "type": "SCALAR"
    },
    {
      "bufferView": 2,
      "byteOffset": 2633592,
      "componentType": 5126,
      "count": 1728,
      "max": [
        2.638364791870117,
        -6.986728668212891,
        -64.0055923461914
      ],
      "min": [
        -12.546140670776367,
        -9.717385292053223,
        -109.40352630615234
      ],
      "type": "VEC3"
    },
    {
      "bufferView": 2,
      "byteOffset": 2654328,
      "componentType": 5126,
      "count": 1728,
      "max": [
        1.0,
        1.0,
        1.0
      ],
      "min": [
        -1.0,
        -1.0,
        -1.0
      ],
      "type": "VEC3"
    },
    {
      "bufferView": 1,
      "byteOffset": 2850760,
      "componentType": 5126,
      "count": 1728,
      "max": [
        0.8750000596046448,
        0.5
      ],
      "min": [
        0.6249999403953552,
        0.24999994039535522
      ],
      "type": "VEC2"
    },
    {
      "bufferView": 1,
      "byteOffset": 2864584,
      "componentType": 5126,
      "count": 1728,
      "max": [
        0.0,
        1.0
      ],
      "min": [
        0.0,
        1.0
      ],
      "type": "VEC2"
    },
    {
      "bufferView": 1,
      "byteOffset": 2878408,
      "componentType": 5126,
      "count": 1728,
      "max": [
        0.0,
        1.0
      ],
      "min": [
        0.0,
        1.0
      ],
      "type": "VEC2"
    },
    {
      "bufferView": 0,
      "byteOffset": 1557252,
      "componentType": 5125,
      "count": 2592,
      "type": "SCALAR"
    },
    {
      "bufferView": 2,
      "byteOffset": 2675064,
      "componentType": 5126,
      "count": 6276,
      "max": [
        -21.813343048095703,
        -25.38752555847168,
        22.36159896850586
      ],
      "min": [
        -48.54753494262695,
        -30.545862197875977,
        -199.0203094482422
      ],
      "type": "VEC3"
    },
    {
      "bufferView": 2,
      "byteOffset": 2750376,
      "componentType": 5126,
      "count": 6276,
      "max": [
        -0.0004999777302145958,
        0.9998550415039063,
        0.2855975329875946
      ],
      "min": [
        -0.9999994039535522,
        -0.9999645948410034,
        -0.2769020199775696
      ],
      "type": "VEC3"
    },
    {
      "bufferView": 3,
      "byteOffset": 64704,
      "componentType": 5126,
      "count": 6276,
      "max": [
        0.9972791075706482,
        0.9999967813491821,
        0.9999647736549377,
        1.0
      ],
      "min": [
        -0.6935688257217407,
        -0.9991235136985779,
        -0.9999148845672607,
        -1.0
      ],
      "type": "VEC4"
    },
    {
      "bufferView": 1,
      "byteOffset": 2892232,
      "componentType": 5126,
      "count": 6276,
      "max": [
        0.8795251846313477,
        0.9889429211616516
      ],
      "min": [
        0.00022572475427296013,
        -0.11441195011138916
      ],
      "type": "VEC2"
    },
    {
      "bufferView": 1,
      "byteOffset": 2942440,
      "componentType": 5126,
      "count": 6276,
      "max": [
        0.653160035610199,
        1.3583152294158936
      ],
      "min": [
        0.10705971717834473,
        -0.3502490520477295
      ],
      "type": "VEC2"
    },
    {
      "bufferView": 1,
      "byteOffset": 2992648,
      "componentType": 5126,
      "count": 6276,
      "max": [
        0.0,
        1.0
      ],
      "min": [
        0.0,
        1.0
      ],
      "type": "VEC2"
    },
    {
      "bufferView": 1,
      "byteOffset": 3042856,
      "componentType": 5126,
      "count": 6276,
      "max": [
        0.8795251846313477,
        0.9889429211616516
      ],
      "min": [
        0.00022572475427296013,
        -0.11441195011138916
      ],
      "type": "VEC2"
    },
    {
      "bufferView": 1,
      "byteOffset": 3093064,
      "componentType": 5126,
      "count": 6276,
      "max": [
        0.8795251846313477,
        0.9889429211616516
      ],
      "min": [
        0.00022572475427296013,
        -0.11441195011138916
      ],
      "type": "VEC2"
    },
    {
      "bufferView": 1,
      "byteOffset": 3143272,
      "componentType": 5126,
      "count": 6276,
      "max": [
        0.8795251846313477,
        0.9889429211616516
      ],
      "min": [
        0.00022572475427296013,
        -0.11441195011138916
      ],
      "type": "VEC2"
    },
    {
      "bufferView": 0,
      "byteOffset": 1567620,
      "componentType": 5125,
      "count": 18507,
      "type": "SCALAR"
    },
    {
      "bufferView": 2,
      "byteOffset": 2825688,
      "componentType": 5126,
      "count": 1581,
      "max": [
        -24.223114013671875,
        -23.184715270996094,
        -53.25725173950195
      ],
      "min": [
        -61.375144958496094,
        -29.363136291503906,
        -122.6308822631836
      ],
      "type": "VEC3"
    },
    {
      "bufferView": 2,
      "byteOffset": 2844660,
      "componentType": 5126,
      "count": 1581,
      "max": [
        1.0,
        1.0,
        1.0
      ],
      "min": [
        -1.0,
        -1.0,
        -1.0
      ],
      "type": "VEC3"
    },
    {
      "bufferView": 3,
      "byteOffset": 165120,
      "componentType": 5126,
      "count": 1581,
      "max": [
        1.0,
        1.0,
        1.0,
        1.0
      ],
      "min": [
        -1.0,
        -1.0,
        -1.0,
        -1.0
      ],
      "type": "VEC4"
    },
    {
      "bufferView": 1,
      "byteOffset": 3193480,
      "componentType": 5126,
      "count": 1581,
      "max": [
        0.8796852827072144,
        1.924845576286316
      ],
      "min": [
        -0.06116713583469391,
        -0.6748454570770264
      ],
      "type": "VEC2"
    },
    {
      "bufferView": 1,
      "byteOffset": 3206128,
      "componentType": 5126,
      "count": 1581,
      "max": [
        0.8796852827072144,
        1.924845576286316
      ],
      "min": [
        -0.06116713583469391,
        -0.6748454570770264
      ],
      "type": "VEC2"
    },
    {
      "bufferView": 1,
      "byteOffset": 3218776,
      "componentType": 5126,
      "count": 1581,
      "max": [
        0.8796852827072144,
        1.924845576286316
      ],
      "min": [
        -0.06116713583469391,
        -0.6748454570770264
      ],
      "type": "VEC2"
    },
    {
      "bufferView": 1,
      "byteOffset": 3231424,
      "componentType": 5126,
      "count": 1581,
      "max": [
        0.8796852827072144,
        1.924845576286316
      ],
      "min": [
        -0.06116713583469391,
        -0.6748454570770264
      ],
      "type": "VEC2"
    },
    {
      "bufferView": 1,
      "byteOffset": 3244072,
      "componentType": 5126,
      "count": 1581,
      "max": [
        3.052762508392334,
        3.7367208003997803
      ],
      "min": [
        -2.7367208003997803,
        -2.052762508392334
      ],
      "type": "VEC2"
    },
    {
      "bufferView": 1,
      "byteOffset": 3256720,
      "componentType": 5126,
      "count": 1581,
      "max": [
        0.0,
        1.0
      ],
      "min": [
        0.0,
        1.0
      ],
      "type": "VEC2"
    },
    {
      "bufferView": 1,
      "byteOffset": 3269368,
      "componentType": 5126,
      "count": 1581,
      "max": [
        0.8796852827072144,
        1.924845576286316
      ],
      "min": [
        -0.06116713583469391,
        -0.6748454570770264
      ],
      "type": "VEC2"
    },
    {
      "bufferView": 0,
      "byteOffset": 1641648,
      "componentType": 5125,
      "count": 2652,
      "type": "SCALAR"
    },
    {
      "bufferView": 2,
      "byteOffset": 2863632,
      "componentType": 5126,
      "count": 244,
      "max": [
        6.440643310546875,
        -25.351165771484375,
        -17.26114273071289
      ],
      "min": [
        -59.21118927001953,
        -29.331785202026367,
        -158.65432739257813
      ],
      "type": "VEC3"
    },
    {
      "bufferView": 2,
      "byteOffset": 2866560,
      "componentType": 5126,
      "count": 244,
      "max": [
        1.0,
        1.0,
        1.0
      ],
      "min": [
        -1.0,
        -1.0,
        -1.0
      ],
      "type": "VEC3"
    },
    {
      "bufferView": 3,
      "byteOffset": 190416,
      "componentType": 5126,
      "count": 244,
      "max": [
        1.0,
        0.9004360437393188,
        1.0,
        1.0
      ],
      "min": [
        -0.9775936007499695,
        -0.21327844262123108,
        0.0,
        -1.0
      ],
      "type": "VEC4"
    },
    {
      "bufferView": 1,
      "byteOffset": 3282016,
      "componentType": 5126,
      "count": 244,
      "max": [
        1.0,
        0.9878830313682556
      ],
      "min": [
        0.0,
        0.0
      ],
      "type": "VEC2"
    },
    {
      "bufferView": 1,
      "byteOffset": 3283968,
      "componentType": 5126,
      "count": 244,
      "max": [
        1.0,
        0.9878830313682556
      ],
      "min": [
        0.0,
        0.0
      ],
      "type": "VEC2"
    },
    {
      "bufferView": 1,
      "byteOffset": 3285920,
      "componentType": 5126,
      "count": 244,
      "max": [
        1.0,
        0.9878830313682556
      ],
      "min": [
        0.0,
        0.0
      ],
      "type": "VEC2"
    },
    {
      "bufferView": 1,
      "byteOffset": 3287872,
      "componentType": 5126,
      "count": 244,
      "max": [
        13.21094799041748,
        58.52135467529297
      ],
      "min": [
        -12.210949897766113,
        -57.52195739746094
      ],
      "type": "VEC2"
    },
    {
      "bufferView": 1,
      "byteOffset": 3289824,
      "componentType": 5126,
      "count": 244,
      "max": [
        0.0,
        1.0
      ],
      "min": [
        0.0,
        1.0
      ],
      "type": "VEC2"
    },
    {
      "bufferView": 1,
      "byteOffset": 3291776,
      "componentType": 5126,
      "count": 244,
      "max": [
        1.0,
        0.9878830313682556
      ],
      "min": [
        0.0,
        0.0
      ],
      "type": "VEC2"
    },
    {
      "bufferView": 0,
      "byteOffset": 1652256,
      "componentType": 5125,
      "count": 474,
      "type": "SCALAR"
    },
    {
      "bufferView": 2,
      "byteOffset": 2869488,
      "componentType": 5126,
      "count": 4,
      "max": [
        1390.1182861328125,
        403.5480651855469,
        1309.719482421875
      ],
      "min": [
        1390.1175537109375,
        -461.1443176269531,
        -1485.634765625
      ],
      "type": "VEC3"
    },
    {
      "bufferView": 2,
      "byteOffset": 2869536,
      "componentType": 5126,
      "count": 4,
      "max": [
        1.0,
        0.0,
        0.0
      ],
      "min": [
        1.0,
        0.0,
        0.0
      ],
      "type": "VEC3"
    },
    {
      "bufferView": 1,
      "byteOffset": 3293728,
      "componentType": 5126,
      "count": 4,
      "max": [
        1.0,
        1.0
      ],
      "min": [
        0.0,
        0.0
      ],
      "type": "VEC2"
    },
    {
      "bufferView": 1,
      "byteOffset": 3293760,
      "componentType": 5126,
      "count": 4,
      "max": [
        0.0,
        1.0
      ],
      "min": [
        0.0,
        1.0
      ],
      "type": "VEC2"
    },
    {
      "bufferView": 1,
      "byteOffset": 3293792,
      "componentType": 5126,
      "count": 4,
      "max": [
        0.0,
        1.0
      ],
      "min": [
        0.0,
        1.0
      ],
      "type": "VEC2"
    },
    {
      "bufferView": 0,
      "byteOffset": 1654152,
      "componentType": 5125,
      "count": 6,
      "type": "SCALAR"
    },
    {
      "bufferView": 2,
      "byteOffset": 2869584,
      "componentType": 5126,
      "count": 115,
      "max": [
        10.904361724853516,
        24.634767532348633,
        107.47289276123047
      ],
      "min": [
        -0.0785369873046875,
        -22.483064651489258,
        -281.32989501953125
      ],
      "type": "VEC3"
    },
    {
      "bufferView": 2,
      "byteOffset": 2870964,
      "componentType": 5126,
      "count": 115,
      "max": [
        1.0,
        0.0,
        0.0
      ],
      "min": [
        1.0,
        0.0,
        0.0
      ],
      "type": "VEC3"
    },
    {
      "bufferView": 1,
      "byteOffset": 3293824,
      "componentType": 5126,
      "count": 115,
      "max": [
        0.9504642486572266,
        0.8112037181854248
      ],
      "min": [
        0.04609891027212143,
        0.342557430267334
      ],
      "type": "VEC2"
    },
    {
      "bufferView": 1,
      "byteOffset": 3294744,
      "componentType": 5126,
      "count": 115,
      "max": [
        17.188364028930664,
        7.219592094421387
      ],
      "min": [
        -14.962674140930176,
        -6.5787248611450195
      ],
      "type": "VEC2"
    },
    {
      "bufferView": 1,
      "byteOffset": 3295664,
      "componentType": 5126,
      "count": 115,
      "max": [
        0.0,
        1.0
      ],
      "min": [
        0.0,
        1.0
      ],
      "type": "VEC2"
    },
    {
      "bufferView": 0,
      "byteOffset": 1654176,
      "componentType": 5125,
      "count": 231,
      "type": "SCALAR"
    }
  ],
  "asset": {
    "extras": {
      "author": "Hoàng Huy (https://sketchfab.com/danghoanghuy69)",
      "license": "CC-BY-4.0 (http://creativecommons.org/licenses/by/4.0/)",
      "source": "https://sketchfab.com/3d-models/dinh-doc-lap-independence-palace-2c4905c6a1fd4fb18981886a77ba4fa9",
      "title": "Dinh Doc Lap Independence Palace"
    },
    "generator": "Sketchfab-16.72.0",
    "version": "2.0"
  },
  "bufferViews": [
    {
      "buffer": 0,
      "byteLength": 1655100,
      "name": "floatBufferViews",
      "target": 34963
    },
    {
      "buffer": 0,
      "byteLength": 3296584,
      "byteOffset": 1655100,
      "byteStride": 8,
      "name": "floatBufferViews",
      "target": 34962
    },
    {
      "buffer": 0,
      "byteLength": 2872344,
      "byteOffset": 4951684,
      "byteStride": 12,
      "name": "floatBufferViews",
      "target": 34962
    },
    {
      "buffer": 0,
      "byteLength": 194320,
      "byteOffset": 7824028,
      "byteStride": 16,
      "name": "floatBufferViews",
      "target": 34962
    }
  ],
  "buffers": [
    {
      "byteLength": 8018348,
      "uri": "scene.bin"
    }
  ],
  "extensionsUsed": [
    "KHR_texture_transform",
    "KHR_materials_specular"
  ],
  "images": [
    {
      "uri": "textures/Facades_05.003_baseColor.jpeg"
    },
    {
      "uri": "textures/Facades_05.003_metallicRoughness.png"
    },
    {
      "uri": "textures/Facades_05.003_normal.jpeg"
    },
    {
      "uri": "textures/DUONG_NHUA_metallicRoughness.png"
    },
    {
      "uri": "textures/Facades_05.001_baseColor.jpeg"
    },
    {
      "uri": "textures/Facades_05.001_metallicRoughness.png"
    },
    {
      "uri": "textures/Facades_05.001_normal.jpeg"
    },
    {
      "uri": "textures/Stone_Wall.001_baseColor.jpeg"
    },
    {
      "uri": "textures/Stone_Wall.001_metallicRoughness.png"
    },
    {
      "uri": "textures/Stone_Wall.001_normal.jpeg"
    },
    {
      "uri": "textures/Material_85_baseColor.jpeg"
    },
    {
      "uri": "textures/Material_97_baseColor.png"
    },
    {
      "uri": "textures/Granite_3_baseColor.jpeg"
    },
    {
      "uri": "textures/Granite_3_metallicRoughness.png"
    },
    {
      "uri": "textures/Granite_3_normal.jpeg"
    },
    {
      "uri": "textures/Black_concreete_baseColor.jpeg"
    },
    {
      "uri": "textures/Black_concreete_metallicRoughness.png"
    },
    {
      "uri": "textures/Black_concreete_normal.jpeg"
    },
    {
      "uri": "textures/Old_Warn_Asphalt_baseColor.png"
    },
    {
      "uri": "textures/Old_Warn_Asphalt_metallicRoughness.png"
    },
    {
      "uri": "textures/Old_Warn_Asphalt_normal.jpeg"
    },
    {
      "uri": "textures/Concrete_wall_with_cracks_baseColor.jpeg"
    },
    {
      "uri": "textures/Concrete_wall_with_cracks_metallicRoughness.png"
    },
    {
      "uri": "textures/Concrete_wall_with_cracks_normal.jpeg"
    },
    {
      "uri": "textures/Concrete_wall_with_cracks_specularf0.png"
    },
    {
      "uri": "textures/Rough_road_asphalt_baseColor.jpeg"
    },
    {
      "uri": "textures/Rough_road_asphalt_metallicRoughness.png"
    },
    {
      "uri": "textures/Rough_road_asphalt_normal.jpeg"
    },
    {
      "uri": "textures/white-cloud-blue-sky-sea_baseColor.jpeg"
    }
  ],
  "materials": [
    {
      "doubleSided": true,
      "name": "material_0",
      "pbrMetallicRoughness": {
        "metallicFactor": 0.0,
        "roughnessFactor": 0.6
      }
    },
    {
      "doubleSided": true,
      "name": "Secon.001",
      "pbrMetallicRoughness": {
        "baseColorFactor": [
          0.800315,
          0.741385,
          0.632825,
          1.0
        ],
        "metallicFactor": 0.0,
        "roughnessFactor": 0.84375
      }
    },
    {
      "doubleSided": true,
      "emissiveFactor": [
        1.0,
        1.0,
        1.0
      ],
      "name": "Screen.001",
      "pbrMetallicRoughness": {
        "baseColorFactor": [
          0.0,
          0.0,
          0.0,
          1.0
        ]
      }
    },
    {
      "doubleSided": true,
      "name": "Facades_05.003",
      "normalTexture": {
        "extensions": {
          "KHR_texture_transform": {
            "offset": [
              4,
              -2.4
            ],
            "scale": [
              9.5,
              1
            ]
          }
        },
        "index": 2
      },
      "pbrMetallicRoughness": {
        "baseColorTexture": {
          "extensions": {
            "KHR_texture_transform": {
              "offset": [
                4,
                -2.4
              ],
              "scale": [
                9.5,
                1
              ]
            }
          },
          "index": 0
        },
        "metallicRoughnessTexture": {
          "extensions": {
            "KHR_texture_transform": {
              "offset": [
                4,
                -2.4
              ],
              "scale": [
                9.5,
                1
              ]
            }
          },
          "index": 1
        }
      }
    },
    {
      "doubleSided": true,
      "name": "Facades_05.004",
      "normalTexture": {
        "extensions": {
          "KHR_texture_transform": {
            "offset": [
              18.2,
              -13.05
            ],
            "scale": [
              -2.7,
              1
            ]
          }
        },
        "index": 2
      },
      "pbrMetallicRoughness": {
        "baseColorTexture": {
          "extensions": {
            "KHR_texture_transform": {
              "offset": [
                18.2,
                -13.05
              ],
              "scale": [
                -2.7,
                1
              ]
            }
          },
          "index": 0
        },
        "metallicRoughnessTexture": {
          "extensions": {
            "KHR_texture_transform": {
              "offset": [
                18.2,
                -13.05
              ],
              "scale": [
                -2.7,
                1
              ]
            }
          },
          "index": 1
        }
      }
    },
    {
      "doubleSided": true,
      "name": "Facades_05.005",
      "normalTexture": {
        "extensions": {
          "KHR_texture_transform": {
            "offset": [
              3.9,
              -1.7
            ],
            "scale": [
              1.4,
              0.3
            ]
          }
        },
        "index": 2
      },
      "pbrMetallicRoughness": {
        "baseColorTexture": {
          "extensions": {
            "KHR_texture_transform": {
              "offset": [
                3.9,
                -1.7
              ],
              "scale": [
                1.4,
                0.3
              ]
            }
          },
          "index": 0
        },
        "metallicRoughnessTexture": {
          "extensions": {
            "KHR_texture_transform": {
              "offset": [
                3.9,
                -1.7
              ],
              "scale": [
                1.4,
                0.3
              ]
            }
          },
          "index": 1
        }
      }
    },
    {
      "doubleSided": true,
      "name": "Material.004",
      "pbrMetallicRoughness": {
        "baseColorFactor": [
          0.0029378,
          0.0029378,
          0.0029378,
          1.0
        ],
        "metallicFactor": 0.0,
        "roughnessFactor": 0.5
      }
    },
    {
      "doubleSided": true,
      "name": "Material.006",
      "pbrMetallicRoughness": {
        "baseColorFactor": [
          0.0114042,
          0.136441,
          0.00158693,
          1.0
        ],
        "metallicFactor": 0.0,
        "roughnessFactor": 0.925926
      }
    },
    {
      "doubleSided": true,
      "name": "Secon",
      "pbrMetallicRoughness": {
        "baseColorFactor": [
          0.800315,
          0.741385,
          0.632825,
          1.0
        ],
        "metallicFactor": 0.0,
        "roughnessFactor": 0.84375
      }
    },
    {
      "doubleSided": true,
      "name": "DUONG_NHUA",
      "pbrMetallicRoughness": {
        "baseColorFactor": [
          0.0102192,
          0.0102192,
          0.0102192,
          1.0
        ],
        "metallicFactor": 0.0,
        "metallicRoughnessTexture": {
          "extensions": {
            "KHR_texture_transform": {
              "offset": [
                0,
                0.5
              ],
              "scale": [
                0.5,
                0.5
              ]
            }
          },
          "index": 3
        }
      }
    },
    {
      "doubleSided": true,
      "name": "Facades_05.001",
      "normalTexture": {
        "extensions": {
          "KHR_texture_transform": {
            "offset": [
              18.2,
              -13.05
            ],
            "scale": [
              -2.7,
              1
            ]
          }
        },
        "index": 6
      },
      "pbrMetallicRoughness": {
        "baseColorTexture": {
          "extensions": {
            "KHR_texture_transform": {
              "offset": [
                18.2,
                -13.05
              ],
              "scale": [
                -2.7,
                1
              ]
            }
          },
          "index": 4
        },
        "metallicRoughnessTexture": {
          "extensions": {
            "KHR_texture_transform": {
              "offset": [
                18.2,
                -13.05
              ],
              "scale": [
                -2.7,
                1
              ]
            }
          },
          "index": 5
        }
      }
    },
    {
      "doubleSided": true,
      "name": "Facades_05",
      "normalTexture": {
        "extensions": {
          "KHR_texture_transform": {
            "offset": [
              3.9,
              -1.7
            ],
            "scale": [
              1.4,
              0.3
            ]
          }
        },
        "index": 6
      },
      "pbrMetallicRoughness": {
        "baseColorTexture": {
          "extensions": {
            "KHR_texture_transform": {
              "offset": [
                3.9,
                -1.7
              ],
              "scale": [
                1.4,
                0.3
              ]
            }
          },
          "index": 4
        },
        "metallicRoughnessTexture": {
          "extensions": {
            "KHR_texture_transform": {
              "offset": [
                3.9,
                -1.7
              ],
              "scale": [
                1.4,
                0.3
              ]
            }
          },
          "index": 5
        }
      }
    },
    {
      "doubleSided": true,
      "extensions": {
        "KHR_materials_specular": {
          "specularColorFactor": [
            1.0,
            1.0,
            1.0
          ],
          "specularFactor": 0.4
        }
      },
      "name": "Stone_Wall.001",
      "normalTexture": {
        "extensions": {
          "KHR_texture_transform": {
            "offset": [
              0,
              -9
            ],
            "scale": [
              10,
              10
            ]
          }
        },
        "index": 9
      },
      "pbrMetallicRoughness": {
        "baseColorTexture": {
          "extensions": {
            "KHR_texture_transform": {
              "offset": [
                0,
                -9
              ],
              "scale": [
                10,
                10
              ]
            }
          },
          "index": 7
        },
        "metallicFactor": 0.3,
        "metallicRoughnessTexture": {
          "extensions": {
            "KHR_texture_transform": {
              "offset": [
                0,
                -9
              ],
              "scale": [
                10,
                10
              ]
            }
          },
          "index": 8
        }
      }
    },
    {
      "doubleSided": true,
      "extensions": {
        "KHR_materials_specular": {
          "specularColorFactor": [
            1.0,
            1.0,
            1.0
          ],
          "specularFactor": 1.0
        }
      },
      "name": "Material_85",
      "pbrMetallicRoughness": {
        "baseColorTexture": {
          "index": 10
        },
        "metallicFactor": 0.0,
        "roughnessFactor": 0.552786
      }
    },
    {
      "doubleSided": true,
      "name": "Material_97",
      "pbrMetallicRoughness": {
        "baseColorTexture": {
          "index": 11
        },
        "metallicFactor": 0.0,
        "roughnessFactor": 0.9
      }
    },
    {
      "doubleSided": true,
      "name": "metal",
      "pbrMetallicRoughness": {
        "baseColorFactor": [
          0.8,
          0.8,
          0.8,
          1.0
        ],
        "roughnessFactor": 0.244186
      }
    },
    {
      "doubleSided": true,
      "name": "flag_5",
      "pbrMetallicRoughness": {
        "baseColorFactor": [
          0.898736,
          0.989964,
          0.0867706,
          1.0
        ]
      }
    },
    {
      "doubleSided": true,
      "name": "flag_5.002",
      "pbrMetallicRoughness": {
        "baseColorFactor": [
          0.333093,
          0.989979,
          0.44742,
          1.0
        ]
      }
    },
    {
      "doubleSided": true,
      "name": "flag_5.001",
      "pbrMetallicRoughness": {
        "baseColorFactor": [
          0.989993,
          0.0670632,
          0.0513123,
          1.0
        ]
      }
    },
    {
      "doubleSided": true,
      "name": "flag_5.003",
      "pbrMetallicRoughness": {
        "baseColorFactor": [
          0.287813,
          0.833645,
          0.989969,
          1.0
        ]
      }
    },
    {
      "doubleSided": true,
      "name": "flag_1",
      "pbrMetallicRoughness": {
        "baseColorFactor": [
          0.175347,
          0.208788,
          1.0,
          1.0
        ]
      }
    },
    {
      "doubleSided": true,
      "name": "flag_4",
      "pbrMetallicRoughness": {
        "baseColorFactor": [
          0.807484,
          0.166887,
          0.970068,
          1.0
        ]
      }
    },
    {
      "doubleSided": true,
      "name": "Granite_3",
      "normalTexture": {
        "extensions": {
          "KHR_texture_transform": {
            "offset": [
              0,
              -4
            ],
            "scale": [
              5,
              5
            ]
          }
        },
        "index": 14,
        "scale": 0.2
      },
      "pbrMetallicRoughness": {
        "baseColorTexture": {
          "extensions": {
            "KHR_texture_transform": {
              "offset": [
                0,
                -4
              ],
              "scale": [
                5,
                5
              ]
            }
          },
          "index": 12
        },
        "metallicFactor": 0.0,
        "metallicRoughnessTexture": {
          "extensions": {
            "KHR_texture_transform": {
              "offset": [
                0,
                -4
              ],
              "scale": [
                5,
                5
              ]
            }
          },
          "index": 13
        }
      }
    },
    {
      "doubleSided": true,
      "extensions": {
        "KHR_materials_specular": {
          "specularColorFactor": [
            1.0,
            1.0,
            1.0
          ],
          "specularFactor": 1.0
        }
      },
      "name": "Black_concreete",
      "normalTexture": {
        "index": 17
      },
      "pbrMetallicRoughness": {
        "baseColorTexture": {
          "index": 15
        },
        "metallicFactor": 0.0,
        "metallicRoughnessTexture": {
          "index": 16
        }
      }
    },
    {
      "doubleSided": true,
      "name": "Material.005",
      "pbrMetallicRoughness": {
        "baseColorFactor": [
          0.8,
          0.8,
          0.8,
          1.0
        ],
        "metallicFactor": 0.0859375,
        "roughnessFactor": 0.15625
      }
    },
    {
      "doubleSided": true,
      "name": "Old_Warn_Asphalt",
      "normalTexture": {
        "extensions": {
          "KHR_texture_transform": {
            "offset": [
              0,
              0.5
            ],
            "scale": [
              0.5,
              0.5
            ]
          }
        },
        "index": 20
      },
      "pbrMetallicRoughness": {
        "baseColorTexture": {
          "extensions": {
            "KHR_texture_transform": {
              "offset": [
                0,
                0.5
              ],
              "scale": [
                0.5,
                0.5
              ]
            }
          },
          "index": 18
        },
        "metallicFactor": 0.0,
        "metallicRoughnessTexture": {
          "extensions": {
            "KHR_texture_transform": {
              "offset": [
                0,
                0.5
              ],
              "scale": [
                0.5,
                0.5
              ]
            }
          },
          "index": 19
        }
      }
    },
    {
      "doubleSided": true,
      "extensions": {
        "KHR_materials_specular": {
          "specularColorFactor": [
            1.0,
            1.0,
            1.0
          ],
          "specularFactor": 1.0,
          "specularTexture": {
            "index": 24,
            "texCoord": 3
          }
        }
      },
      "name": "Concrete_wall_with_cracks",
      "normalTexture": {
        "index": 23,
        "texCoord": 2
      },
      "pbrMetallicRoughness": {
        "baseColorTexture": {
          "index": 21
        },
        "metallicFactor": 0.0,
        "metallicRoughnessTexture": {
          "index": 22,
          "texCoord": 1
        }
      }
    },
    {
      "doubleSided": true,
      "name": "Rough_road_asphalt",
      "normalTexture": {
        "extensions": {
          "KHR_texture_transform": {
            "offset": [
              0,
              0.9
            ],
            "scale": [
              0.1,
              0.1
            ]
          }
        },
        "index": 27,
        "texCoord": 2
      },
      "pbrMetallicRoughness": {
        "baseColorTexture": {
          "extensions": {
            "KHR_texture_transform": {
              "offset": [
                0,
                0.9
              ],
              "scale": [
                0.1,
                0.1
              ]
            }
          },
          "index": 25
        },
        "metallicFactor": 0.0,
        "metallicRoughnessTexture": {
          "extensions": {
            "KHR_texture_transform": {
              "offset": [
                0,
                0.9
              ],
              "scale": [
                0.1,
                0.1
              ]
            }
          },
          "index": 26,
          "texCoord": 1
        }
      }
    },
    {
      "doubleSided": true,
      "name": "white-cloud-blue-sky-sea",
      "pbrMetallicRoughness": {
        "baseColorTexture": {
          "index": 28
        },
        "metallicFactor": 0.1630481159561629,
        "roughnessFactor": 0.9
      }
    },
    {
      "doubleSided": true,
      "name": "Material",
      "pbrMetallicRoughness": {
        "baseColorFactor": [
          0.0,
          0.0,
          0.0,
          1.0
        ],
        "metallicFactor": 0.104938,
        "roughnessFactor": 0.0
      }
    }
  ],
  "meshes": [
    {
      "name": "Object_0",
      "primitives": [
        {
          "attributes": {
            "NORMAL": 1,
            "POSITION": 0,
            "TEXCOORD_0": 2,
            "TEXCOORD_1": 3,
            "TEXCOORD_2": 4
          },
          "indices": 5,
          "material": 1,
          "mode": 4
        }
      ]
    },
    {
      "name": "Object_1",
      "primitives": [
        {
          "attributes": {
            "NORMAL": 7,
            "POSITION": 6,
            "TEXCOORD_0": 8,
            "TEXCOORD_1": 9,
            "TEXCOORD_2": 10
          },
          "indices": 11,
          "material": 2,
          "mode": 4
        }
      ]
    },
    {
      "name": "Object_2",
      "primitives": [
        {
          "attributes": {
            "NORMAL": 13,
            "POSITION": 12,
            "TANGENT": 14,
            "TEXCOORD_0": 15,
            "TEXCOORD_1": 16,
            "TEXCOORD_2": 17,
            "TEXCOORD_3": 18,
            "TEXCOORD_4": 19,
            "TEXCOORD_5": 20
          },
          "indices": 21,
          "material": 3,
          "mode": 4
        }
      ]
    },
    {
      "name": "Object_3",
      "primitives": [
        {
          "attributes": {
            "NORMAL": 23,
            "POSITION": 22,
            "TANGENT": 24,
            "TEXCOORD_0": 25,
            "TEXCOORD_1": 26,
            "TEXCOORD_2": 27,
            "TEXCOORD_3": 28,
            "TEXCOORD_4": 29,
            "TEXCOORD_5": 30
          },
          "indices": 31,
          "material": 4,
          "mode": 4
        }
      ]
    },
    {
      "name": "Object_4",
      "primitives": [
        {
          "attributes": {
            "NORMAL": 33,
            "POSITION": 32,
            "TANGENT": 34,
            "TEXCOORD_0": 35,
            "TEXCOORD_1": 36,
            "TEXCOORD_2": 37,
            "TEXCOORD_3": 38,
            "TEXCOORD_4": 39,
            "TEXCOORD_5": 40
          },
          "indices": 41,
          "material": 5,
          "mode": 4
        }
      ]
    },
    {
      "name": "Object_5",
      "primitives": [
        {
          "attributes": {
            "NORMAL": 43,
            "POSITION": 42,
            "TEXCOORD_0": 44,
            "TEXCOORD_1": 45,
            "TEXCOORD_2": 46
          },
          "indices": 47,
          "material": 0,
          "mode": 4
        }
      ]
    },
    {
      "name": "Object_6",
      "primitives": [
        {
          "attributes": {
            "NORMAL": 49,
            "POSITION": 48,
            "TEXCOORD_0": 50,
            "TEXCOORD_1": 51,
            "TEXCOORD_2": 52
          },
          "indices": 53,
          "material": 6,
          "mode": 4
        }
      ]
    },
    {
      "name": "Object_7",
      "primitives": [
        {
          "attributes": {
            "NORMAL": 55,
            "POSITION": 54,
            "TEXCOORD_0": 56,
            "TEXCOORD_1": 57,
            "TEXCOORD_2": 58
          },
          "indices": 59,
          "material": 7,
          "mode": 4
        }
      ]
    },
    {
      "name": "Object_8",
      "primitives": [
        {
          "attributes": {
            "NORMAL": 61,
            "POSITION": 60,
            "TEXCOORD_0": 62,
            "TEXCOORD_1": 63,
            "TEXCOORD_2": 64
          },
          "indices": 65,
          "material": 8,
          "mode": 4
        }
      ]
    },
    {
      "name": "Object_9",
      "primitives": [
        {
          "attributes": {
            "NORMAL": 67,
            "POSITION": 66,
            "TEXCOORD_0": 68,
            "TEXCOORD_1": 69,
            "TEXCOORD_2": 70
          },
          "indices": 71,
          "material": 8,
          "mode": 4
        }
      ]
    },
    {
      "name": "Object_10",
      "primitives": [
        {
          "attributes": {
            "NORMAL": 73,
            "POSITION": 72,
            "TEXCOORD_0": 74,
            "TEXCOORD_1": 75,
            "TEXCOORD_2": 76,
            "TEXCOORD_3": 77
          },
          "indices": 78,
          "material": 9,
          "mode": 4
        }
      ]
    },
    {
      "name": "Object_11",
      "primitives": [
        {
          "attributes": {
            "NORMAL": 80,
            "POSITION": 79,
            "TANGENT": 81,
            "TEXCOORD_0": 82,
            "TEXCOORD_1": 83,
            "TEXCOORD_2": 84,
            "TEXCOORD_3": 85,
            "TEXCOORD_4": 86,
            "TEXCOORD_5": 87
          },
          "indices": 88,
          "material": 10,
          "mode": 4
        }
      ]
    },
    {
      "name": "Object_12",
      "primitives": [
        {
          "attributes": {
            "NORMAL": 90,
            "POSITION": 89,
            "TANGENT": 91,
            "TEXCOORD_0": 92,
            "TEXCOORD_1": 93,
            "TEXCOORD_2": 94,
            "TEXCOORD_3": 95,
            "TEXCOORD_4": 96,
            "TEXCOORD_5": 97
          },
          "indices": 98,
          "material": 11,
          "mode": 4
        }
      ]
    },
    {
      "name": "Object_13",
      "primitives": [
        {
          "attributes": {
            "NORMAL": 100,
            "POSITION": 99,
            "TANGENT": 101,
            "TEXCOORD_0": 102,
            "TEXCOORD_1": 103,
            "TEXCOORD_2": 104,
            "TEXCOORD_3": 105,
            "TEXCOORD_4": 106,
            "TEXCOORD_5": 107
          },
          "indices": 108,
          "material": 12,
          "mode": 4
        }
      ]
    },
    {
      "name": "Object_14",
      "primitives": [
        {
          "attributes": {
            "NORMAL": 110,
            "POSITION": 109,
            "TEXCOORD_0": 111,
            "TEXCOORD_1": 112,
            "TEXCOORD_2": 113
          },
          "indices": 114,
          "material": 13,
          "mode": 4
        }
      ]
    },
    {
      "name": "Object_15",
      "primitives": [
        {
          "attributes": {
            "NORMAL": 116,
            "POSITION": 115,
            "TEXCOORD_0": 117,
            "TEXCOORD_1": 118,
            "TEXCOORD_2": 119
          },
          "indices": 120,
          "material": 14,
          "mode": 4
        }
      ]
    },
    {
      "name": "Object_16",
      "primitives": [
        {
          "attributes": {
            "NORMAL": 122,
            "POSITION": 121,
            "TEXCOORD_0": 123,
            "TEXCOORD_1": 124,
            "TEXCOORD_2": 125
          },
          "indices": 126,
          "material": 15,
          "mode": 4
        }
      ]
    },
    {
      "name": "Object_17",
      "primitives": [
        {
          "attributes": {
            "NORMAL": 128,
            "POSITION": 127,
            "TEXCOORD_0": 129,
            "TEXCOORD_1": 130,
            "TEXCOORD_2": 131
          },
          "indices": 132,
          "material": 16,
          "mode": 4
        }
      ]
    },
    {
      "name": "Object_18",
      "primitives": [
        {
          "attributes": {
            "NORMAL": 134,
            "POSITION": 133,
            "TEXCOORD_0": 135,
            "TEXCOORD_1": 136,
            "TEXCOORD_2": 137
          },
          "indices": 138,
          "material": 17,
          "mode": 4
        }
      ]
    },
    {
      "name": "Object_19",
      "primitives": [
        {
          "attributes": {
            "NORMAL": 140,
            "POSITION": 139,
            "TEXCOORD_0": 141,
            "TEXCOORD_1": 142,
            "TEXCOORD_2": 143
          },
          "indices": 144,
          "material": 18,
          "mode": 4
        }
      ]
    },
    {
      "name": "Object_20",
      "primitives": [
        {
          "attributes": {
            "NORMAL": 146,
            "POSITION": 145,
            "TEXCOORD_0": 147,
            "TEXCOORD_1": 148,
            "TEXCOORD_2": 149
          },
          "indices": 150,
          "material": 19,
          "mode": 4
        }
      ]
    },
    {
      "name": "Object_21",
      "primitives": [
        {
          "attributes": {
            "NORMAL": 152,
            "POSITION": 151,
            "TEXCOORD_0": 153,
            "TEXCOORD_1": 154,
            "TEXCOORD_2": 155
          },
          "indices": 156,
          "material": 20,
          "mode": 4
        }
      ]
    },
    {
      "name": "Object_22",
      "primitives": [
        {
          "attributes": {
            "NORMAL": 158,
            "POSITION": 157,
            "TEXCOORD_0": 159,
            "TEXCOORD_1": 160,
            "TEXCOORD_2": 161
          },
          "indices": 162,
          "material": 21,
          "mode": 4
        }
      ]
    },
    {
      "name": "Object_23",
      "primitives": [
        {
          "attributes": {
            "NORMAL": 164,
            "POSITION": 163,
            "TANGENT": 165,
            "TEXCOORD_0": 166,
            "TEXCOORD_1": 167,
            "TEXCOORD_2": 168,
            "TEXCOORD_3": 169,
            "TEXCOORD_4": 170,
            "TEXCOORD_5": 171
          },
          "indices": 172,
          "material": 22,
          "mode": 4
        }
      ]
    },
    {
      "name": "Object_24",
      "primitives": [
        {
          "attributes": {
            "NORMAL": 174,
            "POSITION": 173,
            "TANGENT": 175,
            "TEXCOORD_0": 176,
            "TEXCOORD_1": 177,
            "TEXCOORD_2": 178,
            "TEXCOORD_3": 179,
            "TEXCOORD_4": 180,
            "TEXCOORD_5": 181
          },
          "indices": 182,
          "material": 23,
          "mode": 4
        }
      ]
    },
    {
      "name": "Object_25",
      "primitives": [
        {
          "attributes": {
            "NORMAL": 184,
            "POSITION": 183,
            "TEXCOORD_0": 185,
            "TEXCOORD_1": 186,
            "TEXCOORD_2": 187
          },
          "indices": 188,
          "material": 24,
          "mode": 4
        }
      ]
    },
    {
      "name": "Object_26",
      "primitives": [
        {
          "attributes": {
            "NORMAL": 190,
            "POSITION": 189,
            "TANGENT": 191,
            "TEXCOORD_0": 192,
            "TEXCOORD_1": 193,
            "TEXCOORD_2": 194,
            "TEXCOORD_3": 195,
            "TEXCOORD_4": 196,
            "TEXCOORD_5": 197
          },
          "indices": 198,
          "material": 25,
          "mode": 4
        }
      ]
    },
    {
      "name": "Object_27",
      "primitives": [
        {
          "attributes": {
            "NORMAL": 200,
            "POSITION": 199,
            "TANGENT": 201,
            "TEXCOORD_0": 202,
            "TEXCOORD_1": 203,
            "TEXCOORD_2": 204,
            "TEXCOORD_3": 205,
            "TEXCOORD_4": 206,
            "TEXCOORD_5": 207,
            "TEXCOORD_6": 208
          },
          "indices": 209,
          "material": 26,
          "mode": 4
        }
      ]
    },
    {
      "name": "Object_28",
      "primitives": [
        {
          "attributes": {
            "NORMAL": 211,
            "POSITION": 210,
            "TANGENT": 212,
            "TEXCOORD_0": 213,
            "TEXCOORD_1": 214,
            "TEXCOORD_2": 215,
            "TEXCOORD_3": 216,
            "TEXCOORD_4": 217,
            "TEXCOORD_5": 218
          },
          "indices": 219,
          "material": 27,
          "mode": 4
        }
      ]
    },
    {
      "name": "Object_29",
      "primitives": [
        {
          "attributes": {
            "NORMAL": 221,
            "POSITION": 220,
            "TEXCOORD_0": 222,
            "TEXCOORD_1": 223,
            "TEXCOORD_2": 224
          },
          "indices": 225,
          "material": 28,
          "mode": 4
        }
      ]
    },
    {
      "name": "Object_30",
      "primitives": [
        {
          "attributes": {
            "NORMAL": 227,
            "POSITION": 226,
            "TEXCOORD_0": 228,
            "TEXCOORD_1": 229,
            "TEXCOORD_2": 230
          },
          "indices": 231,
          "material": 29,
          "mode": 4
        }
      ]
    }
  ],
  "nodes": [
    {
      "children": [
        1
      ],
      "matrix": [
        1.0,
        0.0,
        0.0,
        0.0,
        0.0,
        2.220446049250313e-16,
        -1.0,
        0.0,
        0.0,
        1.0,
        2.220446049250313e-16,
        0.0,
        0.0,
        0.0,
        0.0,
        1.0
      ],
      "name": "Sketchfab_model"
    },
    {
      "children": [
        2
      ],
      "name": "root"
    },
    {
      "children": [
        3
      ],
      "matrix": [
        1.0,
        0.0,
        0.0,
        0.0,
        0.0,
        2.220446049250313e-16,
        1.0,
        0.0,
        0.0,
        -1.0,
        2.220446049250313e-16,
        0.0,
        0.0,
        0.0,
        0.0,
        1.0
      ],
      "name": "GLTF_SceneRootNode"
    },
    {
      "children": [
        4,
        5,
        6,
        7,
        8,
        9,
        10,
        11,
        12,
        13,
        14,
        15,
        16,
        17,
        18,
        19,
        20,
        21,
        22,
        23,
        24,
        25,
        26,
        27,
        28,
        29,
        30,
        31,
        32,
        33,
        34
      ],
      "matrix": [
        0.0,
        0.0,
        -0.25319886207580566,
        0.0,
        0.0,
        0.4686179459095001,
        0.0,
        0.0,
        0.2174377292394638,
        0.0,
        0.0,
        0.0,
        35.217323303222656,
        14.349007606506348,
        77.88971710205078,
        1.0
      ],
      "name": "Cube.003_0"
    },
    {
      "mesh": 0,
      "name": "Object_4"
    },
    {
      "mesh": 1,
      "name": "Object_5"
    },
    {
      "mesh": 2,
      "name": "Object_6"
    },
    {
      "mesh": 3,
      "name": "Object_7"
    },
    {
      "mesh": 4,
      "name": "Object_8"
    },
    {
      "mesh": 5,
      "name": "Object_9"
    },
    {
      "mesh": 6,
      "name": "Object_10"
    },
    {
      "mesh": 7,
      "name": "Object_11"
    },
    {
      "mesh": 8,
      "name": "Object_12"
    },
    {
      "mesh": 9,
      "name": "Object_13"
    },
    {
      "mesh": 10,
      "name": "Object_14"
    },
    {
      "mesh": 11,
      "name": "Object_15"
    },
    {
      "mesh": 12,
      "name": "Object_16"
    },
    {
      "mesh": 13,
      "name": "Object_17"
    },
    {
      "mesh": 14,
      "name": "Object_18"
    },
    {
      "mesh": 15,
      "name": "Object_19"
    },
    {
      "mesh": 16,
      "name": "Object_20"
    },
    {
      "mesh": 17,
      "name": "Object_21"
    },
    {
      "mesh": 18,
      "name": "Object_22"
    },
    {
      "mesh": 19,
      "name": "Object_23"
    },
    {
      "mesh": 20,
      "name": "Object_24"
    },
    {
      "mesh": 21,
      "name": "Object_25"
    },
    {
      "mesh": 22,
      "name": "Object_26"
    },
    {
      "mesh": 23,
      "name": "Object_27"
    },
    {
      "mesh": 24,
      "name": "Object_28"
    },
    {
      "mesh": 25,
      "name": "Object_29"
    },
    {
      "mesh": 26,
      "name": "Object_30"
    },
    {
      "mesh": 27,
      "name": "Object_31"
    },
    {
      "mesh": 28,
      "name": "Object_32"
    },
    {
      "mesh": 29,
      "name": "Object_33"
    },
    {
      "mesh": 30,
      "name": "Object_34"
    }
  ],
  "samplers": [
    {
      "magFilter": 9729,
      "minFilter": 9987,
      "wrapS": 10497,
      "wrapT": 10497
    },
    {
      "magFilter": 9729,
      "minFilter": 9987,
      "wrapS": 33071,
      "wrapT": 33071
    }
  ],
  "scene": 0,
  "scenes": [
    {
      "name": "Sketchfab_Scene",
      "nodes": [
        0
      ]
    }
  ],
  "textures": [
    {
      "sampler": 0,
      "source": 0
    },
    {
      "sampler": 0,
      "source": 1
    },
    {
      "sampler": 0,
      "source": 2
    },
    {
      "sampler": 0,
      "source": 3
    },
    {
      "sampler": 0,
      "source": 4
    },
    {
      "sampler": 0,
      "source": 5
    },
    {
      "sampler": 0,
      "source": 6
    },
    {
      "sampler": 0,
      "source": 7
    },
    {
      "sampler": 0,
      "source": 8
    },
    {
      "sampler": 0,
      "source": 9
    },
    {
      "sampler": 0,
      "source": 10
    },
    {
      "sampler": 0,
      "source": 11
    },
    {
      "sampler": 0,
      "source": 12
    },
    {
      "sampler": 0,
      "source": 13
    },
    {
      "sampler": 0,
      "source": 14
    },
    {
      "sampler": 0,
      "source": 15
    },
    {
      "sampler": 0,
      "source": 16
    },
    {
      "sampler": 0,
      "source": 17
    },
    {
      "sampler": 0,
      "source": 18
    },
    {
      "sampler": 0,
      "source": 19
    },
    {
      "sampler": 0,
      "source": 20
    },
    {
      "sampler": 0,
      "source": 21
    },
    {
      "sampler": 0,
      "source": 22
    },
    {
      "sampler": 0,
      "source": 23
    },
    {
      "sampler": 0,
      "source": 24
    },
    {
      "sampler": 0,
      "source": 25
    },
    {
      "sampler": 0,
      "source": 26
    },
    {
      "sampler": 0,
      "source": 27
    },
    {
      "sampler": 1,
      "source": 28
    }
  ]
}
